<svg xmlns="http://www.w3.org/2000/svg" version="1.1" xmlns:xlink="http://www.w3.org/1999/xlink" xmlns:svgjs="http://svgjs.dev/svgjs" width="1000" height="1000" viewBox="0 0 1000 1000"><rect width="1000" height="1000" fill="#97978d"></rect><g transform="matrix(0.7,0,0,0.7,149.57575757575756,282.1265587044535)"><svg viewBox="0 0 396 247" data-background-color="#97978d" preserveAspectRatio="xMidYMid meet" height="623" width="1000" xmlns="http://www.w3.org/2000/svg" xmlns:xlink="http://www.w3.org/1999/xlink"><g id="tight-bounds" transform="matrix(1,0,0,1,0.2400000000000091,-0.09999999999999432)"><svg viewBox="0 0 395.52 247.2" height="247.2" width="395.52"><g><svg></svg></g><g><svg viewBox="0 0 395.52 247.2" height="247.2" width="395.52"><g><path xmlns="http://www.w3.org/2000/svg" d="M55.039 247.2l44.756-77.519 195.93 0 44.756 77.519zM197.76 0l44.756 77.519-89.512 0z" fill="#ffffff" fill-rule="nonzero" stroke="none" stroke-width="1" stroke-linecap="butt" stroke-linejoin="miter" stroke-miterlimit="10" stroke-dasharray="" stroke-dashoffset="0" font-family="none" font-weight="none" font-size="none" text-anchor="none" style="mix-blend-mode: normal" data-fill-palette-color="tertiary"></path></g><g transform="matrix(1,0,0,1,0,90.68502732240438)"><svg viewBox="0 0 395.52 65.82994535519124" height="65.82994535519124" width="395.52"><g><svg viewBox="0 0 395.52 65.82994535519124" height="65.82994535519124" width="395.52"><g><svg viewBox="0 0 395.52 65.82994535519124" height="65.82994535519124" width="395.52"><g><svg viewBox="0 0 395.52 65.82994535519124" height="65.82994535519124" width="395.52"><g id="textblocktransform"><svg viewBox="0 0 395.52 65.82994535519124" height="65.82994535519124" width="395.52" id="textblock"><g><svg viewBox="0 0 395.52 65.82994535519124" height="65.82994535519124" width="395.52"><g transform="matrix(1,0,0,1,0,0)"><svg width="395.52" viewBox="1.75 -35.650001525878906 219.5800018310547 36.55000305175781" height="65.82994535519124" data-palette-color="#ffffff"><path d="M27.55-34.75L27.55-10.9Q27.55-7.5 26.13-4.85 24.7-2.2 21.8-0.65 18.9 0.9 14.65 0.9L14.65 0.9Q8.3 0.9 5.03-2.3 1.75-5.5 1.75-10.9L1.75-10.9 1.75-34.75 10.8-34.75 10.8-11.2Q10.8-8.35 11.7-7.03 12.6-5.7 14.65-5.7L14.65-5.7Q16.7-5.7 17.6-7.05 18.5-8.4 18.5-11.2L18.5-11.2 18.5-34.75 27.55-34.75ZM48.5 0L42.5-12.9 40.55-12.9 40.55 0 31.5 0 31.5-34.75 42.35-34.75Q56.2-34.75 56.2-23.95L56.2-23.95Q56.2-17.4 50.55-14.6L50.55-14.6 58.25 0 48.5 0ZM40.55-28.45L40.55-19.05 42.6-19.05Q44.9-19.05 45.92-20.23 46.95-21.4 46.95-23.95L46.95-23.95Q46.95-26.25 45.8-27.35 44.65-28.45 42.25-28.45L42.25-28.45 40.55-28.45ZM77.65-18.4Q80.95-17.65 82.95-15.78 84.95-13.9 84.95-10.2L84.95-10.2Q84.95-4.7 81.12-2.35 77.3 0 70.59 0L70.59 0 59.8 0 59.8-34.75 69.4-34.75Q76.25-34.75 79.95-32.58 83.65-30.4 83.65-25.8L83.65-25.8Q83.65-22.8 81.95-20.95 80.25-19.1 77.65-18.4L77.65-18.4ZM70.25-28.45L68.84-28.45 68.84-21 70.45-21Q72.65-21 73.57-21.95 74.5-22.9 74.5-24.9L74.5-24.9Q74.5-26.7 73.5-27.58 72.5-28.45 70.25-28.45L70.25-28.45ZM70.7-6.45Q73.15-6.45 74.42-7.43 75.7-8.4 75.7-10.75L75.7-10.75Q75.7-13 74.52-14.08 73.34-15.15 71-15.15L71-15.15 68.84-15.15 68.84-6.45 70.7-6.45ZM113.99 0L104.64 0 103.29-7.2 95.39-7.2 94.04 0 84.84 0 94.04-34.75 104.84-34.75 113.99 0ZM99.34-28.25L96.59-13.6 102.09-13.6 99.34-28.25ZM140.64-34.75L140.64 0 129.44 0 122.04-26.5Q122.64-22.05 122.92-19.1 123.19-16.15 123.19-11.95L123.19-11.95 123.19 0 115.39 0 115.39-34.75 126.44-34.75 133.99-8.15Q133.44-11.8 133.12-14.88 132.79-17.95 132.79-21.85L132.79-21.85 132.79-34.75 140.64-34.75ZM168.79-35.65Q171.89-35.65 174.36-34.65 176.84-33.65 178.94-31.7L178.94-31.7 174.74-26.75Q173.39-27.85 172.11-28.45 170.84-29.05 169.39-29.05L169.39-29.05Q163.44-29.05 163.44-17.45L163.44-17.45Q163.44-11.45 164.99-8.7 166.54-5.95 169.44-5.95L169.44-5.95Q171.04-5.95 172.31-6.6 173.59-7.25 175.29-8.6L175.29-8.6 179.29-3.7Q177.39-1.65 174.71-0.38 172.04 0.9 168.79 0.9L168.79 0.9Q161.99 0.9 158.01-3.78 154.04-8.45 154.04-17.45L154.04-17.45Q154.04-23.3 155.91-27.4 157.79-31.5 161.11-33.58 164.44-35.65 168.79-35.65L168.79-35.65ZM195.08-35.65Q202.13-35.65 205.91-31 209.68-26.35 209.68-17.4L209.68-17.4Q209.68-8.55 205.88-3.83 202.08 0.9 195.08 0.9L195.08 0.9Q188.08 0.9 184.31-3.78 180.53-8.45 180.53-17.4L180.53-17.4Q180.53-26.2 184.31-30.93 188.08-35.65 195.08-35.65L195.08-35.65ZM195.08-29.15Q192.38-29.15 191.16-26.48 189.93-23.8 189.93-17.4L189.93-17.4Q189.93-10.95 191.16-8.28 192.38-5.6 195.08-5.6L195.08-5.6Q196.98-5.6 198.11-6.73 199.23-7.85 199.76-10.43 200.28-13 200.28-17.4L200.28-17.4Q200.28-23.8 199.06-26.48 197.83-29.15 195.08-29.15L195.08-29.15ZM216.63-8.6Q218.63-8.6 219.98-7.18 221.33-5.75 221.33-3.85L221.33-3.85Q221.33-1.85 220.01-0.48 218.68 0.9 216.63 0.9L216.63 0.9Q214.63 0.9 213.28-0.5 211.93-1.9 211.93-3.85L211.93-3.85Q211.93-5.75 213.28-7.18 214.63-8.6 216.63-8.6L216.63-8.6Z" opacity="1" transform="matrix(1,0,0,1,0,0)" fill="#ffffff" class="wordmark-text-0" data-fill-palette-color="primary" id="text-0"></path></svg></g></svg></g></svg></g></svg></g><g></g></svg></g></svg></g></svg></g></svg></g><defs></defs></svg><rect width="395.52" height="247.2" fill="none" stroke="none" visibility="hidden"></rect></g></svg></g></svg>